<svg xmlns="http://www.w3.org/2000/svg" viewBox="0 0 445.41664 272.66095"><defs><style>.cls-1{opacity:0.12;}.cls-2,.cls-3{fill:#747459;}.cls-3{font-size:118.50123px;font-family:Cherolina;}</style></defs><title>Fichier 2</title><g id="Calque_2" data-name="Calque 2"><g id="Layer_1" data-name="Layer 1"><g class="cls-1"><path class="cls-2" d="M48.65058,272.661Q3.10646,269.54616,0,223.72634q0-29.9737,19.517-53.17361a234.28469,234.28469,0,0,1,45.53817-41.292,148.5184,148.5184,0,0,1-7.63783-46.10384A76.28727,76.28727,0,0,1,69.29659,41.86008,88.61036,88.61036,0,0,1,100.552,11.73839,87.17574,87.17574,0,0,1,142.55292,0q38.74886,1.41777,38.75,29.98325,0,26.30039-24.04245,47.79849a595.32217,595.32217,0,0,1-58.54874,43.27308Q86.26331,129.54,74.106,138.02512,94.4704,193.755,132.65477,227.68846q35.63763-32.24357,35.63764-65.05521,0-11.8792-8.48516-22.90871l-.284-1.413c0-2.44888,1.0335-3.68048,3.11242-3.68048h.56567a4.97187,4.97187,0,0,1,3.67571,1.41777q6.78812,9.90292,7.3538,26.58442,0,36.21047-36.769,69.299,20.93,17.536,41.86008,17.53359,3.67332,0,3.67809,3.39406a3.55808,3.55808,0,0,1-.99053,2.83077,4.01118,4.01118,0,0,1-2.68756.84494q-24.32767-2.25555-46.66714-20.646-15.84611,14.70759-38.32519,25.73948Q71.84214,272.65619,48.65058,272.661Zm0-5.65676q18.94659,0,40.72873-10.04375a157.90143,157.90143,0,0,0,38.75-25.02821q-37.9075-33.66135-58.83277-90.22663A210.29427,210.29427,0,0,0,41.01276,164.896a109.22154,109.22154,0,0,0-20.646,27.29569,66.90187,66.90187,0,0,0-7.63783,31.53469q0,17.8224,8.91,30.54654Q30.54655,267.00419,48.65058,267.00419ZM70.1463,125.86665q11.0307-7.64022,23.47439-15.839a568.30129,568.30129,0,0,0,56.286-40.44708Q171.39886,51.479,171.40243,29.98325q0-10.18218-8.626-17.11351a31.73712,31.73712,0,0,0-20.50518-6.93133A79.13435,79.13435,0,0,0,103.80287,16.9703,87.19565,87.19565,0,0,0,74.67171,44.69085a68.609,68.609,0,0,0-11.31353,38.466A143.07721,143.07721,0,0,0,70.1463,125.86665Z"/></g><text class="cls-3" transform="translate(19.7726 123.41591)">Estelle</text><text class="cls-3" transform="translate(134.87148 224.77248)">Matthieu</text></g></g></svg>