<svg xmlns="http://www.w3.org/2000/svg" viewBox="0 0 445.41664 272.66095"><defs><style>.cls-1{opacity:0.12;}.cls-2{fill:#747459;}</style></defs><title>Fichier 4</title><g id="Calque_2" data-name="Calque 2"><g id="Layer_1" data-name="Layer 1"><g class="cls-1"><path class="cls-2" d="M48.65058,272.661Q3.10646,269.54616,0,223.72634q0-29.9737,19.517-53.17361a234.28469,234.28469,0,0,1,45.53817-41.292,148.5184,148.5184,0,0,1-7.63783-46.10384A76.28727,76.28727,0,0,1,69.29659,41.86008,88.61036,88.61036,0,0,1,100.552,11.73839,87.17574,87.17574,0,0,1,142.55292,0q38.74886,1.41777,38.75,29.98325,0,26.30039-24.04245,47.79849a595.32217,595.32217,0,0,1-58.54874,43.27308Q86.26331,129.54,74.106,138.02512,94.4704,193.755,132.65477,227.68846q35.63763-32.24357,35.63764-65.05521,0-11.8792-8.48516-22.90871l-.284-1.413c0-2.44888,1.0335-3.68048,3.11242-3.68048h.56567a4.97187,4.97187,0,0,1,3.67571,1.41777q6.78812,9.90292,7.3538,26.58442,0,36.21047-36.769,69.299,20.93,17.536,41.86008,17.53359,3.67332,0,3.67809,3.39406a3.55808,3.55808,0,0,1-.99053,2.83077,4.01118,4.01118,0,0,1-2.68756.84494q-24.32767-2.25555-46.66714-20.646-15.84611,14.70759-38.32519,25.73948Q71.84214,272.65619,48.65058,272.661Zm0-5.65676q18.94659,0,40.72873-10.04375a157.90143,157.90143,0,0,0,38.75-25.02821q-37.9075-33.66135-58.83277-90.22663A210.29427,210.29427,0,0,0,41.01276,164.896a109.22154,109.22154,0,0,0-20.646,27.29569,66.90187,66.90187,0,0,0-7.63783,31.53469q0,17.8224,8.91,30.54654Q30.54655,267.00419,48.65058,267.00419ZM70.1463,125.86665q11.0307-7.64022,23.47439-15.839a568.30129,568.30129,0,0,0,56.286-40.44708Q171.39886,51.479,171.40243,29.98325q0-10.18218-8.626-17.11351a31.73712,31.73712,0,0,0-20.50518-6.93133A79.13435,79.13435,0,0,0,103.80287,16.9703,87.19565,87.19565,0,0,0,74.67171,44.69085a68.609,68.609,0,0,0-11.31353,38.466A143.07721,143.07721,0,0,0,70.1463,125.86665Z"/></g><path class="cls-2" d="M39.79262,130.53292a24.44759,24.44759,0,0,1-10.7041-2.31446,16.25983,16.25983,0,0,1-7.08887-6.6831,21.65135,21.65135,0,0,1-2.5166-10.84912q0-12.03442,9.89453-22.10352a63.52286,63.52286,0,0,1,22.0459-14.87061l.40429-.05761c0-.03809-.251-.05811-.752-.05811a16.91968,16.91968,0,0,1-6.68359-1.4751q-3.44238-1.47582-3.44238-7.08837A21.12843,21.12843,0,0,1,44.2477,53.779a37.17694,37.17694,0,0,1,8.39062-9.46045,44.96112,44.96112,0,0,1,10.791-6.50977,27.15848,27.15848,0,0,1,10.44433-2.40087,6.79433,6.79433,0,0,1,4.42676,1.38867,4.59658,4.59658,0,0,1,1.707,3.76074,7.24951,7.24951,0,0,1-.69531,2.71973,6.78821,6.78821,0,0,1-2.77734,2.835,2.4837,2.4837,0,0,0-.34668.20263,1.356,1.356,0,0,1-.17383.11573c-.03809.02-.07715.03906-.11621.0581a.25158.25158,0,0,1-.11524.02881q-1.21581,0-1.21484-1.15723a1.31084,1.31084,0,0,1,.25976-.81,1.76874,1.76874,0,0,1,1.24415-.43409,3.21583,3.21583,0,0,0,1.88085-.897,3.43471,3.43471,0,0,0,.89649-2.66162,3.40553,3.40553,0,0,0-1.35938-2.95068,6.03769,6.03769,0,0,0-3.61621-.98389,24.65216,24.65216,0,0,0-9.63379,2.66162,43.652,43.652,0,0,0-9.86523,6.59619A39.31379,39.31379,0,0,0,46.65,54.965,19.14185,19.14185,0,0,0,43.612,65.03292q0,7.23412,7.92676,7.23291a20.53369,20.53369,0,0,0,5.66992-.81006q.75294,0,.75293.5205a.75.75,0,0,1-.40527.69434Q41.58657,79.03682,31.74965,88.988q-9.89355,9.83716-9.89453,21.69825,0,8.2163,4.6289,13.25048,4.62891,5.03394,13.3086,5.32325,16.144-.29077,29.10547-16.20166A62.368,62.368,0,0,0,76.361,102.06465l2.60449-4.97607c0-.19238.07715-.28955.23145-.28955q.86718,0,.86718.63672,0,.17358-2.68945,5.1499A86.12974,86.12974,0,0,1,69.65,114.04219Q56.74476,130.12692,39.79262,130.53292Z"/><path class="cls-2" d="M111.88832,135.79805q-.86718,0-.86719-.9834,0-9.37353,6.0752-31.01416,6.0747-21.64012,11.2832-38.3623-2.02587,0-4.28222.17334A236.78648,236.78648,0,0,1,106.04457,84.301Q93.31508,96.10469,89.38051,102.58565q0,3.00879-2.42969,7.23242a.56927.56927,0,0,1-.52148.28955.708.708,0,0,1-.4043-.11572.51955.51955,0,0,1-.17383-.46289,11.85483,11.85483,0,0,1,1.5625-5.78613,9.97138,9.97138,0,0,0-.20312-2.02539q-.20216-.98292-.49219-1.96729-.3457-1.1565-.63672-2.48828a15.27187,15.27187,0,0,1-.28906-3.18213,7.22547,7.22547,0,0,1,1.5625-4.62891q2.83447-3.64526,3.87695-3.6455a1.6918,1.6918,0,0,1,.31836.0288.9306.9306,0,0,1,.31836.145.74547.74547,0,0,1,.28906.69434.71424.71424,0,0,1-.05761.26025.77106.77106,0,0,1-.17383.26026,10.57218,10.57218,0,0,0-2.63281,2.80664,6.82046,6.82046,0,0,0-.95411,3.67383,20.67759,20.67759,0,0,0,.57813,5.20752q.23145,1.27368.28906,1.73632,3.82032-5.959,15.85449-17.06933l.17285-.17383a210.62444,210.62444,0,0,0,17.12793-17.648,42.51245,42.51245,0,0,0-16.60644,4.91846.54342.54342,0,0,1-.31836.14453,2.28029,2.28029,0,0,1-.31836.02881q-1.04151,0-1.09961-1.15723,0-.69433.98438-1.15722A52.59293,52.59293,0,0,1,123.693,64.22286a66.555,66.555,0,0,0,9.373-14.52344,1.67468,1.67468,0,0,1,1.73632-1.273,1.42856,1.42856,0,0,1,1.44629,1.62012,3.66811,3.66811,0,0,1-.17285,1.0415q-1.44726,3.936-4.62988,13.07715a153.4752,153.4752,0,0,1,21.583,2.71924l.40429.40527a.847.847,0,0,1-.20214.57861.58113.58113,0,0,1-.43458.23145,147.7418,147.7418,0,0,0-21.87109-2.66162q-18.16992,51.84522-18.168,69.43408A.82726.82726,0,0,1,111.88832,135.79805Zm13.42383-71.63281a9.5153,9.5153,0,0,0,1.1582-.05811h2.37207l2.60352-8.6792A58.16627,58.16627,0,0,1,125.31215,64.16524Z"/><path class="cls-2" d="M139.83559,98.47725q-6.249,0-6.53809-5.26562a8.35751,8.35751,0,0,1,1.62012-5.0918,5.90966,5.90966,0,0,1,4.6875-2.37207,2.752,2.752,0,0,1,1.56152.46289,1.50339,1.50339,0,0,1,.69434,1.33057,2.82933,2.82933,0,0,1-1.9668,2.77734,10.115,10.115,0,0,1-3.87695.81006,9.25614,9.25614,0,0,0-.17383,1.90967,4.33443,4.33443,0,0,0,1.07031,3.0664,3.78009,3.78009,0,0,0,2.92188,1.15723,37.20659,37.20659,0,0,0,9.3164-1.273,78.15877,78.15877,0,0,0,10.00977-3.356q5.0918-2.083,10.18359-4.45508a1.3382,1.3382,0,0,1,.54981.11573.50915.50915,0,0,1,.26074.52051.67323.67323,0,0,1-.08789.28955c-.05664.11572-.125.17334-.20117.17334q-.11719.11718-3.06739,1.50439-2.95165,1.38867-7.52246,3.18262a87.27134,87.27134,0,0,1-9.749,3.15332A38.26446,38.26446,0,0,1,139.83559,98.47725Zm-3.47071-8.50586a8.27143,8.27143,0,0,0,2.89258-.63623,1.90712,1.90712,0,0,0,1.38867-1.79394q0-.57789-1.041-.57862Q137.46351,86.9626,136.36488,89.97139Z"/><path class="cls-2" d="M173.62758,110.85958q-7.522-.46216-7.52246-8.44776,0-9.60425,5.49805-22.56592a100.247,100.247,0,0,1,13.53906-23.145q8.10058-10.00927,16.375-10.58886,5.66893,0,5.78613,5.96-.17431,3.99243-3.55859,9.37353a72.29854,72.29854,0,0,1-8.82325,11.10938q-11.28514,11.92089-23.7246,16.375a44.87852,44.87852,0,0,0-2.48829,13.36621q0,4.051,1.24414,5.72851a4.28531,4.28531,0,0,0,3.67481,1.67774q8.562-.86791,19.73144-8.27393a110.293,110.293,0,0,0,17.06836-13.36621l.23243-.17383c.5,0,.75195.23145.75195.69434l-.05859.34717a126.42873,126.42873,0,0,1-17.30079,13.48193Q182.77016,109.99239,173.62758,110.85958Zm-1.96777-23.31836q11.458-4.281,22.39257-15.79639A69.40746,69.40746,0,0,0,202.819,60.63545q3.32665-5.3811,3.32714-8.56347-.11718-4.7439-4.6289-4.74463-7.81055.86791-16.49024,13.53955A110.02835,110.02835,0,0,0,171.65981,87.54122Z"/><path class="cls-2" d="M214.88246,110.85958q-7.52051-.46216-7.52148-8.44776,0-9.60425,5.49707-22.56592a100.21519,100.21519,0,0,1,13.54-23.145q8.09912-10.00927,16.375-10.58886,5.66894,0,5.78515,5.96-.17285,3.99243-3.55859,9.37353a72.2387,72.2387,0,0,1-8.82324,11.10938q-11.28369,11.92089-23.72364,16.375a44.87879,44.87879,0,0,0-2.48828,13.36621q0,4.051,1.24414,5.72851a4.28348,4.28348,0,0,0,3.67383,1.67774q8.56348-.86791,19.73145-8.27393a110.30853,110.30853,0,0,0,17.06933-13.36621l.23145-.17383q.75147,0,.75195.69434l-.05762.34717a126.48847,126.48847,0,0,1-17.30078,13.48193Q224.026,109.99239,214.88246,110.85958Zm-1.96679-23.31836q11.45654-4.281,22.39257-15.79639a69.453,69.453,0,0,0,8.76563-11.10938q3.32813-5.3811,3.32812-8.56347-.11718-4.7439-4.6289-4.74463-7.812.86791-16.49121,13.53955A109.98912,109.98912,0,0,0,212.91567,87.54122Z"/><path class="cls-2" d="M256.19692,98.47725q-6.2505,0-6.53907-5.26562a8.36383,8.36383,0,0,1,1.62012-5.0918,5.90773,5.90773,0,0,1,4.68652-2.37207,2.7529,2.7529,0,0,1,1.5625.46289,1.50339,1.50339,0,0,1,.69434,1.33057,2.829,2.829,0,0,1-1.96777,2.77734,10.11034,10.11034,0,0,1-3.876.81006,9.18937,9.18937,0,0,0-.17383,1.90967,4.33443,4.33443,0,0,0,1.07031,3.0664,3.78085,3.78085,0,0,0,2.92286,1.15723,37.198,37.198,0,0,0,9.31445-1.273,78.12071,78.12071,0,0,0,10.01074-3.356q5.09034-2.083,10.18359-4.45508a1.34151,1.34151,0,0,1,.54981.11573.50719.50719,0,0,1,.25976.52051.67993.67993,0,0,1-.08593.28955c-.0586.11572-.126.17334-.20313.17334q-.11718.11718-3.0664,1.50439-2.9502,1.38867-7.52149,3.18262a87.48685,87.48685,0,0,1-9.75,3.15332A38.26905,38.26905,0,0,1,256.19692,98.47725Zm-3.47266-8.50586a8.27192,8.27192,0,0,0,2.89355-.63623,1.90711,1.90711,0,0,0,1.38868-1.79394q0-.57789-1.042-.57862Q253.82289,86.9626,252.72426,89.97139Z"/><path class="cls-2" d="M168.14223,196.3044q1.15722-3.35449,3.41406-8.79492a177.07691,177.07691,0,0,1,7.5791-16.25928,129.1603,129.1603,0,0,1,8.85352-14.49414,56.20207,56.20207,0,0,1,9.373-10.50195q4.74463-3.99243,9.14258-3.99268a4.731,4.731,0,0,1,3.5586,1.47559q1.41649,1.47582,1.418,4.77343a45.71246,45.71246,0,0,1-1.5625,11.34131,123.50815,123.50815,0,0,1-4.1084,12.81641q-2.54737,6.74121-5.55469,14.03125-4.80322,11.57373-8.65039,22.82666a63.95924,63.95924,0,0,0-3.84766,20.51221,22.15827,22.15827,0,0,0,1.44629,7.60888,15.33162,15.33162,0,0,0,4.1084,6.33545,1.21742,1.21742,0,0,1,.40527.86817,1.00454,1.00454,0,0,1-1.09961,1.09912,1.38051,1.38051,0,0,1-.92578-.34717,18.271,18.271,0,0,1-3.81933-6.88525,28.33235,28.33235,0,0,1-1.33008-8.6792,76.68028,76.68028,0,0,1,4.0498-23.60791q4.51319-13.24952,9.02637-24.47559,2.71875-6.82691,4.94727-12.874a114.52238,114.52238,0,0,0,3.55859-11.28321,39.17376,39.17376,0,0,0,1.33105-9.57617,6.61512,6.61512,0,0,0-.78125-3.47168,2.42694,2.42694,0,0,0-2.16992-1.27295q-4.05028,0-8.65039,3.90576a55.58482,55.58482,0,0,0-9.22851,10.502,130.83262,130.83262,0,0,0-8.85352,14.69678,177.265,177.265,0,0,0-10.35742,23.75244q-4.0503,11.66015-4.04981,18.313,0,.69435-.86816.69434c-.541,0-.80957-.23144-.80957-.69434a73.13573,73.13573,0,0,1,3.5293-21.75585q3.876-11.97731,7.81152-21.9878,3.52881-9.14136,5.959-16.66406a44.24456,44.24456,0,0,0,2.43067-13.42383q0-3.47168-2.31445-3.5874-3.81885,0-8.56348,4.97607a82.50279,82.50279,0,0,0-9.77832,12.98975,192.74888,192.74888,0,0,0-9.66309,17.4165q-4.63036,9.40357-8.36133,18.458-3.73242,9.0564-5.93066,16.05664-2.2002,7.002-2.19922,9.95215,0,.98511-1.041.98389a.86954.86954,0,0,1-.98438-.98389,102.7492,102.7492,0,0,1,2.749-21.00391,242.03714,242.03714,0,0,1,6.88575-25.11181,133.93809,133.93809,0,0,1,8.708-20.94629,1.48426,1.48426,0,0,1,1.38868-.92578,1.8114,1.8114,0,0,1,.60742.145.78809.78809,0,0,1,.49219.46289,1.678,1.678,0,0,1,.11523.54931,1.17177,1.17177,0,0,1-.23145.63672,187.70266,187.70266,0,0,0-10.93554,28.1211q-5.32471,17.01123-6.6543,27.1372,1.67726-6.82691,10.126-25.604a191.80376,191.80376,0,0,1,18.97851-33.41553q8.21631-11.05077,14.292-11.05127,3.876,0,4.22363,4.74463a49.62227,49.62227,0,0,1-1.35938,11.312,107.482,107.482,0,0,1-3.55859,11.91944q-2.2002,6.10546-4.74512,12.29541Q170.91909,187.68354,168.14223,196.3044Z"/><path class="cls-2" d="M264.82973,234.60909q-.86865,0-.86817-1.04151,0-8.67919,5.32325-28.03418,5.32323-19.35424,11.167-36.19238-6.71191,17.18481-13.85742,27.88916-7.147,10.70582-13.79981,11.457a4.91107,4.91107,0,0,1-4.31055-2.71972,15.87418,15.87418,0,0,1-1.18652-6.82764q0-9.48925,4.22363-23.37647-1.67871,3.29883-5.49707,9.374-9.37353,14.35034-18.51562,14.34961-7.34913,0-8.21582-5.439a18.99422,18.99422,0,0,1-2.083,1.96729q-3.18311,3.06738-5.49707,3.0664-3.12452,0-3.29883-3.5874a8.71413,8.71413,0,0,1,1.33106-4.19482,14.54,14.54,0,0,1,3.44336-4.0791,6.94964,6.94964,0,0,1,4.48437-1.73584,3.06558,3.06558,0,0,1,2.63184,1.12793,4.03512,4.03512,0,0,1,.83984,2.45947.54742.54742,0,0,1-.46289.57861.71328.71328,0,0,1-.81055-.57861q0-1.56226-1.85156-1.62012a4.90146,4.90146,0,0,0-3.35547,1.62012,15.551,15.551,0,0,0-2.80664,3.645,7.25292,7.25292,0,0,0-1.1289,3.18261q0,1.73584,1.0996,1.96729a6.26242,6.26242,0,0,0,3.32715-1.64893,28.20166,28.20166,0,0,0,3.96387-3.79,1.40307,1.40307,0,0,1,1.21484-.69433q1.21583,0,1.21485,1.0415,0,5.20752,5.96,5.55469,12.208,0,26.0957-29.56738-.6372-.05713-1.85156-.05811a45.9213,45.9213,0,0,0-14.292,2.48828,1.86226,1.86226,0,0,1-.69434.11573q-1.1001,0-1.09863-1.21534a.89222.89222,0,0,1,.52051-.81005q7.34765-3.12452,18.8623-4.45508,1.85157-5.38111,3.29883-9.02637a1.716,1.716,0,0,1,1.62012-.98389,1.22743,1.22743,0,0,1,1.38867,1.38868q-1.563,3.81884-3.24024,8.2163,8.09913-.80932,17.01075-.81005,3.06738,0,6.13379.11572,2.89306-8.15845,4.68652-14.92822a1.646,1.646,0,0,1,1.67871-1.33106,1.58351,1.58351,0,0,1,1.01172.40527,1.48232,1.48232,0,0,1,.49219,1.21485,4.24671,4.24671,0,0,1-.17383,1.09961q-1.33155,3.53027-4.86035,13.59765a141.08913,141.08913,0,0,1,19.67285,2.083.57688.57688,0,0,1,.40527.63623c0,.42529-.19336.63672-.57812.63672a136.86911,136.86911,0,0,0-20.02051-1.90967q-17.87988,51.32446-17.87891,68.39307Q265.69789,234.60859,264.82973,234.60909Zm-12.03516-27.19483q6.13183,0,14.40723-13.48193a165.27539,165.27539,0,0,0,13.54-28.75732,209.00323,209.00323,0,0,0-23.26074,1.09912q-8.44923,23.0874-8.44825,35.12255Q249.03285,207.415,252.79457,207.41426Zm-3.24023-40.04052h.23144q2.25587,0,4.28125.17334v.17382c.1543-.42431.26953-.79.34766-1.09961Q251.11586,167.08565,249.55434,167.37374Z"/><path class="cls-2" d="M286.29652,203.47969a2.55009,2.55009,0,0,1-1.79394-.63672,1.91842,1.91842,0,0,1-.69434-1.44629,55.04939,55.04939,0,0,1,2.92188-16.4331,122.51951,122.51951,0,0,1,7.52246-18.28418,119.74862,119.74862,0,0,1,9.80762-16.25928q8.042-11.16649,14.58105-11.74609,3.29736,0,3.29785,3.70312,0,3.76245-3.93457,10.27051a137.974,137.974,0,0,1-10.21289,14.37891q-6.27831,7.86914-13.56836,16.02783-5.67187,6.48047-6.13281,6.82764a40.15429,40.15429,0,0,0-2.084,11.63037q.05859.75219.40527.752.46288,0,1.5625-1.09912a29.13919,29.13919,0,0,0,2.14062-2.40137q1.04151-1.30224,1.50489-1.93847,4.5703-5.959,7.46386-5.96,2.43018,0,3.24024,1.273a5.82137,5.82137,0,0,1,.81055,3.18262q0,1.21509-.0586,2.14063l-.05762,1.27295a8.79468,8.79468,0,0,0,.17383,1.73584q.11573.63794,1.50391.63671,4.456,0,14.35058-4.6289l12.90235-7.00147q.81006,0,.81055.521v.28906a.20477.20477,0,0,1-.23145.23145q-1.15869.75292-7.46387,4.166-13.88672,7.5813-20.36816,7.58008a5.46467,5.46467,0,0,1-3.00879-.86768,3.52461,3.52461,0,0,1-1.30176-1.88085,9.038,9.038,0,0,1-.31836-2.459,9.76728,9.76728,0,0,1,.11621-1.50439,9.51261,9.51261,0,0,0,.11524-1.44678,7.02,7.02,0,0,0-.17285-1.44629q-.0586-.57787-1.042-.57861a4.75313,4.75313,0,0,0-3.24023,1.67773,55.50546,55.50546,0,0,0-4.166,4.86035l-2.31445,2.89356Q287.5685,203.47969,286.29652,203.47969ZM288.9,187.22042q9.37353-9.95142,18.74707-22.04541,13.13526-16.89478,13.13477-22.73975,0-2.54591-2.083-2.5459-2.66163,0-6.68262,4.5708a86.80449,86.80449,0,0,0-8.50586,11.89063,161.12822,161.12822,0,0,0-8.44824,15.76757A138.53763,138.53763,0,0,0,288.9,187.22042Z"/><path class="cls-2" d="M337.04067,200.4128q-7.23341,0-7.34864-5.67041a10.58586,10.58586,0,0,1,2.31446-6.59619,1.32155,1.32155,0,0,1,1.27343-.63672,2.21458,2.21458,0,0,1,1.09961.26025.80232.80232,0,0,1,.46289.72363l-.05761.28907a10.94826,10.94826,0,0,0-1.91016,6.1333,4.52092,4.52092,0,0,0,1.0127,2.89306,4.18757,4.18757,0,0,0,3.0957,1.44678A29.86613,29.86613,0,0,0,345.402,197.78q4.88818-1.4751,9.57618-3.38477,4.6875-1.90942,7.86914-3.41406l3.29785-1.5044q.69434,0,.69433.57862a.76114.76114,0,0,1-.08691.34716q-.08643.1736-.20215.17383-.17284.11646-3.32715,1.59131-3.15381,1.4751-7.78222,3.38477Q343.463,200.4128,337.04067,200.4128Zm-2.083-15.04395q-1.33155,0-1.33008-2.083,0-2.77736,1.85156-3.18262a1.9458,1.9458,0,0,1,1.50391.72314,2.29624,2.29624,0,0,1,.63672,1.53369,3.04538,3.04538,0,0,1-.86817,2.02491A2.43718,2.43718,0,0,1,334.95766,185.36885Z"/><path class="cls-2" d="M370.36977,199.83418q-6.2505,0-6.53907-5.26562a8.36385,8.36385,0,0,1,1.62012-5.0918,5.90969,5.90969,0,0,1,4.6875-2.37207,2.75207,2.75207,0,0,1,1.56153.46289,1.5034,1.5034,0,0,1,.69433,1.33057,2.82933,2.82933,0,0,1-1.9668,2.77734,10.115,10.115,0,0,1-3.877.81006,9.257,9.257,0,0,0-.17383,1.90967,4.33443,4.33443,0,0,0,1.07032,3.06641,3.78224,3.78224,0,0,0,2.92285,1.15722,37.20532,37.20532,0,0,0,9.31543-1.273A78.10669,78.10669,0,0,0,389.695,193.99q5.0918-2.083,10.1836-4.45508a1.33815,1.33815,0,0,1,.5498.11572.50771.50771,0,0,1,.26074.52051.68339.68339,0,0,1-.08691.28955c-.05762.11572-.126.17334-.20215.17334q-.11718.11718-3.06738,1.50439-2.9502,1.38868-7.52149,3.18262a87.35492,87.35492,0,0,1-9.75,3.15332A38.26312,38.26312,0,0,1,370.36977,199.83418Zm-3.47168-8.50585a8.27153,8.27153,0,0,0,2.89258-.63623,1.90713,1.90713,0,0,0,1.38867-1.794q0-.57787-1.041-.57861Q367.99673,188.31954,366.89809,191.32833Z"/><path class="cls-2" d="M418.1061,199.31319q-7.11768,0-7.40625-5.67041a15.09,15.09,0,0,1,.05761-2.0249,40.042,40.042,0,0,1-4.28222,3.61621,7.69073,7.69073,0,0,1-4.57032,1.64892q-3.876,0-4.28222-2.0249l-.05762-.92578q0-2.83448,3.18262-6.94336a1.319,1.319,0,0,1,1.27246-.63672q1.5044,0,1.50488.98389l-.17383.28906q-3.06738,4.74535-3.0664,6.88574,0,1.158,1.62011,1.15723a6.56443,6.56443,0,0,0,3.58692-1.33106,27.74883,27.74883,0,0,0,6.65429-6.01757l.40528-.52051a5.89457,5.89457,0,0,1,.69433-.95508,2.4597,2.4597,0,0,1,1.67774-.376q1.0415.29,1.041.92579l-.17285.34716a10.76488,10.76488,0,0,0-1.91015,6.1333,4.41985,4.41985,0,0,0,1.1289,2.98,3.87981,3.87981,0,0,0,3.09571,1.30176q5.32177,0,16.3164-4.28174l10.35742-4.39746q.63574,0,.63672.57862,0,.52074-.28906.521-.1172.11646-3.06738,1.38867Q425.45327,199.31417,418.1061,199.31319Z"/></g></g></svg>